<mxfile host="app.diagrams.net" agent="Mozilla/5.0 (X11; Linux x86_64; rv:142.0) Gecko/20100101 Firefox/142.0" version="28.2.5">
  <diagram name="Page-1" id="dSWh78h6hDq7ALldhm6v">
    <mxGraphModel dx="1373" dy="754" grid="1" gridSize="10" guides="1" tooltips="1" connect="1" arrows="1" fold="1" page="1" pageScale="1" pageWidth="827" pageHeight="1169" math="0" shadow="0">
      <root>
        <mxCell id="0" />
        <mxCell id="1" parent="0" />
        <mxCell id="a5-3fMOm6GQ6o93qHDnQ-1" value="Internet" style="ellipse;shape=cloud;whiteSpace=wrap;html=1;" parent="1" vertex="1">
          <mxGeometry x="350" y="30" width="120" height="80" as="geometry" />
        </mxCell>
        <mxCell id="2vWqZJId4R-WWW28JVpw-1" value="" style="sketch=0;points=[[0.015,0.015,0],[0.985,0.015,0],[0.985,0.985,0],[0.015,0.985,0],[0.25,0,0],[0.5,0,0],[0.75,0,0],[1,0.25,0],[1,0.5,0],[1,0.75,0],[0.75,1,0],[0.5,1,0],[0.25,1,0],[0,0.75,0],[0,0.5,0],[0,0.25,0]];verticalLabelPosition=bottom;html=1;verticalAlign=top;aspect=fixed;align=center;pointerEvents=1;shape=mxgraph.cisco19.rect;prIcon=l3_switch;fillColor=#FAFAFA;strokeColor=#005073;" parent="1" vertex="1">
          <mxGeometry x="385" y="650" width="50" height="50" as="geometry" />
        </mxCell>
        <mxCell id="2vWqZJId4R-WWW28JVpw-2" value="" style="sketch=0;points=[[0.5,0,0],[1,0.5,0],[0.5,1,0],[0,0.5,0],[0.145,0.145,0],[0.8555,0.145,0],[0.855,0.8555,0],[0.145,0.855,0]];verticalLabelPosition=bottom;html=1;verticalAlign=top;aspect=fixed;align=center;pointerEvents=1;shape=mxgraph.cisco19.rect;prIcon=router;fillColor=#FAFAFA;strokeColor=#005073;" parent="1" vertex="1">
          <mxGeometry x="310" y="180" width="50" height="50" as="geometry" />
        </mxCell>
        <mxCell id="2vWqZJId4R-WWW28JVpw-3" value="" style="sketch=0;points=[[0.5,0,0],[1,0.5,0],[0.5,1,0],[0,0.5,0],[0.145,0.145,0],[0.8555,0.145,0],[0.855,0.8555,0],[0.145,0.855,0]];verticalLabelPosition=bottom;html=1;verticalAlign=top;aspect=fixed;align=center;pointerEvents=1;shape=mxgraph.cisco19.rect;prIcon=router;fillColor=#FAFAFA;strokeColor=#005073;" parent="1" vertex="1">
          <mxGeometry x="460" y="180" width="50" height="50" as="geometry" />
        </mxCell>
        <mxCell id="2vWqZJId4R-WWW28JVpw-4" value="" style="fontColor=#0066CC;verticalAlign=top;verticalLabelPosition=bottom;labelPosition=center;align=center;html=1;outlineConnect=0;fillColor=#CCCCCC;strokeColor=#6881B3;gradientColor=none;gradientDirection=north;strokeWidth=2;shape=mxgraph.networks.pc;" parent="1" vertex="1">
          <mxGeometry x="552.5" y="770" width="50" height="40" as="geometry" />
        </mxCell>
        <mxCell id="2vWqZJId4R-WWW28JVpw-5" value="" style="image;points=[];aspect=fixed;html=1;align=center;shadow=0;dashed=0;image=img/lib/allied_telesis/computer_and_terminals/Server_Desktop.svg;" parent="1" vertex="1">
          <mxGeometry x="220.7" y="780" width="42.599999999999994" height="54" as="geometry" />
        </mxCell>
        <mxCell id="2vWqZJId4R-WWW28JVpw-6" value="" style="sketch=0;verticalLabelPosition=bottom;sketch=0;aspect=fixed;html=1;verticalAlign=top;strokeColor=none;fillColor=#000000;align=center;outlineConnect=0;pointerEvents=1;shape=mxgraph.citrix2.tunnel;" parent="1" vertex="1">
          <mxGeometry x="187" y="730" width="110" height="23.65" as="geometry" />
        </mxCell>
        <mxCell id="2vWqZJId4R-WWW28JVpw-7" value="" style="sketch=0;verticalLabelPosition=bottom;sketch=0;aspect=fixed;html=1;verticalAlign=top;strokeColor=none;fillColor=#000000;align=center;outlineConnect=0;pointerEvents=1;shape=mxgraph.citrix2.tunnel;" parent="1" vertex="1">
          <mxGeometry x="525" y="730" width="105" height="22.58" as="geometry" />
        </mxCell>
        <mxCell id="2vWqZJId4R-WWW28JVpw-8" value="" style="sketch=0;verticalLabelPosition=bottom;sketch=0;aspect=fixed;html=1;verticalAlign=top;strokeColor=none;fillColor=#000000;align=center;outlineConnect=0;pointerEvents=1;shape=mxgraph.citrix2.tunnel;" parent="1" vertex="1">
          <mxGeometry x="360" y="590" width="100" height="21.5" as="geometry" />
        </mxCell>
        <mxCell id="2vWqZJId4R-WWW28JVpw-9" value="&lt;div&gt;Vlan 238 : interco&lt;/div&gt;&lt;div&gt;172.28.95.240 /29&lt;/div&gt;" style="text;html=1;align=center;verticalAlign=middle;whiteSpace=wrap;rounded=0;" parent="1" vertex="1">
          <mxGeometry x="470" y="581.5" width="170" height="30" as="geometry" />
        </mxCell>
        <mxCell id="2vWqZJId4R-WWW28JVpw-10" value="&lt;div&gt;Vlan 231 : Serveur&lt;/div&gt;&lt;div&gt;172.28.64.X/24&lt;/div&gt;" style="text;html=1;align=center;verticalAlign=middle;whiteSpace=wrap;rounded=0;" parent="1" vertex="1">
          <mxGeometry x="173" y="690" width="124" height="30" as="geometry" />
        </mxCell>
        <mxCell id="2vWqZJId4R-WWW28JVpw-11" value="Active directory" style="text;html=1;align=center;verticalAlign=middle;whiteSpace=wrap;rounded=0;" parent="1" vertex="1">
          <mxGeometry x="205" y="840" width="60" height="30" as="geometry" />
        </mxCell>
        <mxCell id="2vWqZJId4R-WWW28JVpw-12" value="" style="endArrow=none;html=1;rounded=0;entryX=0.477;entryY=0;entryDx=0;entryDy=0;entryPerimeter=0;" parent="1" source="2vWqZJId4R-WWW28JVpw-6" target="2vWqZJId4R-WWW28JVpw-5" edge="1">
          <mxGeometry width="50" height="50" relative="1" as="geometry">
            <mxPoint x="110" y="590" as="sourcePoint" />
            <mxPoint x="160" y="540" as="targetPoint" />
          </mxGeometry>
        </mxCell>
        <mxCell id="2vWqZJId4R-WWW28JVpw-13" value="&lt;div&gt;Vlan 232 : Client&lt;/div&gt;&lt;div&gt;172.28.65.x/24&lt;/div&gt;" style="text;html=1;align=center;verticalAlign=middle;whiteSpace=wrap;rounded=0;" parent="1" vertex="1">
          <mxGeometry x="507.5" y="690" width="122.5" height="30" as="geometry" />
        </mxCell>
        <mxCell id="2vWqZJId4R-WWW28JVpw-15" value="&lt;div&gt;PC Client&lt;/div&gt;&lt;div&gt;DHCP&lt;/div&gt;" style="text;html=1;align=center;verticalAlign=middle;whiteSpace=wrap;rounded=0;" parent="1" vertex="1">
          <mxGeometry x="552.5" y="820" width="60" height="30" as="geometry" />
        </mxCell>
        <mxCell id="2vWqZJId4R-WWW28JVpw-16" value="" style="endArrow=none;html=1;rounded=0;exitX=0.5;exitY=0.07;exitDx=0;exitDy=0;exitPerimeter=0;" parent="1" source="2vWqZJId4R-WWW28JVpw-4" target="2vWqZJId4R-WWW28JVpw-7" edge="1">
          <mxGeometry width="50" height="50" relative="1" as="geometry">
            <mxPoint x="480" y="580" as="sourcePoint" />
            <mxPoint x="530" y="530" as="targetPoint" />
          </mxGeometry>
        </mxCell>
        <mxCell id="2vWqZJId4R-WWW28JVpw-18" value="" style="endArrow=none;html=1;rounded=0;exitX=1;exitY=0.5;exitDx=0;exitDy=0;entryX=0.36;entryY=1.04;entryDx=0;entryDy=0;entryPerimeter=0;" parent="1" source="2vWqZJId4R-WWW28JVpw-19" target="2vWqZJId4R-WWW28JVpw-3" edge="1">
          <mxGeometry width="50" height="50" relative="1" as="geometry">
            <mxPoint x="500" y="310" as="sourcePoint" />
            <mxPoint x="550" y="260" as="targetPoint" />
          </mxGeometry>
        </mxCell>
        <mxCell id="2vWqZJId4R-WWW28JVpw-19" value="Interface virtuelle" style="text;html=1;align=center;verticalAlign=middle;whiteSpace=wrap;rounded=0;" parent="1" vertex="1">
          <mxGeometry x="365.5" y="250" width="89" height="30" as="geometry" />
        </mxCell>
        <mxCell id="2vWqZJId4R-WWW28JVpw-20" value="" style="endArrow=none;html=1;rounded=0;entryX=0.5;entryY=1;entryDx=0;entryDy=0;entryPerimeter=0;exitX=0;exitY=0.5;exitDx=0;exitDy=0;" parent="1" source="2vWqZJId4R-WWW28JVpw-19" target="2vWqZJId4R-WWW28JVpw-2" edge="1">
          <mxGeometry width="50" height="50" relative="1" as="geometry">
            <mxPoint x="250" y="300" as="sourcePoint" />
            <mxPoint x="300" y="250" as="targetPoint" />
          </mxGeometry>
        </mxCell>
        <mxCell id="2vWqZJId4R-WWW28JVpw-22" value=".249" style="text;html=1;align=center;verticalAlign=middle;whiteSpace=wrap;rounded=0;" parent="1" vertex="1">
          <mxGeometry x="400" y="270" width="60" height="30" as="geometry" />
        </mxCell>
        <mxCell id="2vWqZJId4R-WWW28JVpw-24" value=".254" style="text;html=1;align=center;verticalAlign=middle;whiteSpace=wrap;rounded=0;" parent="1" vertex="1">
          <mxGeometry x="305" y="230" width="45" height="20" as="geometry" />
        </mxCell>
        <mxCell id="2vWqZJId4R-WWW28JVpw-25" value=".252" style="text;html=1;align=center;verticalAlign=middle;whiteSpace=wrap;rounded=0;" parent="1" vertex="1">
          <mxGeometry x="470" y="230" width="40" height="20" as="geometry" />
        </mxCell>
        <mxCell id="2vWqZJId4R-WWW28JVpw-26" value="" style="endArrow=none;html=1;rounded=0;entryX=0.015;entryY=0.985;entryDx=0;entryDy=0;entryPerimeter=0;" parent="1" source="2vWqZJId4R-WWW28JVpw-6" target="2vWqZJId4R-WWW28JVpw-1" edge="1">
          <mxGeometry width="50" height="50" relative="1" as="geometry">
            <mxPoint x="330" y="550" as="sourcePoint" />
            <mxPoint x="380" y="500" as="targetPoint" />
          </mxGeometry>
        </mxCell>
        <mxCell id="2vWqZJId4R-WWW28JVpw-28" value="" style="endArrow=none;html=1;rounded=0;exitX=0.5;exitY=0;exitDx=0;exitDy=0;exitPerimeter=0;" parent="1" source="2vWqZJId4R-WWW28JVpw-1" target="2vWqZJId4R-WWW28JVpw-8" edge="1">
          <mxGeometry width="50" height="50" relative="1" as="geometry">
            <mxPoint x="290" y="420" as="sourcePoint" />
            <mxPoint x="340" y="370" as="targetPoint" />
          </mxGeometry>
        </mxCell>
        <mxCell id="2vWqZJId4R-WWW28JVpw-29" value="" style="endArrow=none;html=1;rounded=0;exitX=0.5;exitY=0;exitDx=0;exitDy=0;exitPerimeter=0;entryX=0.13;entryY=0.77;entryDx=0;entryDy=0;entryPerimeter=0;" parent="1" source="2vWqZJId4R-WWW28JVpw-2" target="a5-3fMOm6GQ6o93qHDnQ-1" edge="1">
          <mxGeometry width="50" height="50" relative="1" as="geometry">
            <mxPoint x="280" y="150" as="sourcePoint" />
            <mxPoint x="330" y="100" as="targetPoint" />
          </mxGeometry>
        </mxCell>
        <mxCell id="2vWqZJId4R-WWW28JVpw-30" value="" style="endArrow=none;html=1;rounded=0;exitX=0.5;exitY=0;exitDx=0;exitDy=0;exitPerimeter=0;entryX=0.8;entryY=0.8;entryDx=0;entryDy=0;entryPerimeter=0;" parent="1" source="2vWqZJId4R-WWW28JVpw-3" target="a5-3fMOm6GQ6o93qHDnQ-1" edge="1">
          <mxGeometry width="50" height="50" relative="1" as="geometry">
            <mxPoint x="520" y="160" as="sourcePoint" />
            <mxPoint x="570" y="110" as="targetPoint" />
          </mxGeometry>
        </mxCell>
        <mxCell id="2vWqZJId4R-WWW28JVpw-31" value=".254" style="text;html=1;align=center;verticalAlign=middle;whiteSpace=wrap;rounded=0;" parent="1" vertex="1">
          <mxGeometry x="334.5" y="670" width="60" height="30" as="geometry" />
        </mxCell>
        <mxCell id="2vWqZJId4R-WWW28JVpw-33" value=".241" style="text;html=1;align=center;verticalAlign=middle;whiteSpace=wrap;rounded=0;" parent="1" vertex="1">
          <mxGeometry x="392" y="620" width="60" height="30" as="geometry" />
        </mxCell>
        <mxCell id="R1HHoGMpDkZWzOGXWr1R-2" value="" style="shape=table;startSize=0;container=1;collapsible=0;childLayout=tableLayout;fontSize=16;" parent="1" vertex="1">
          <mxGeometry x="368" y="483" width="84" height="54" as="geometry" />
        </mxCell>
        <mxCell id="R1HHoGMpDkZWzOGXWr1R-3" value="" style="shape=tableRow;horizontal=0;startSize=0;swimlaneHead=0;swimlaneBody=0;strokeColor=inherit;top=0;left=0;bottom=0;right=0;collapsible=0;dropTarget=0;fillColor=none;points=[[0,0.5],[1,0.5]];portConstraint=eastwest;fontSize=16;" parent="R1HHoGMpDkZWzOGXWr1R-2" vertex="1">
          <mxGeometry width="84" height="17" as="geometry" />
        </mxCell>
        <mxCell id="R1HHoGMpDkZWzOGXWr1R-4" value="" style="shape=partialRectangle;html=1;whiteSpace=wrap;connectable=0;strokeColor=inherit;overflow=hidden;fillColor=none;top=0;left=0;bottom=0;right=0;pointerEvents=1;fontSize=16;" parent="R1HHoGMpDkZWzOGXWr1R-3" vertex="1">
          <mxGeometry width="28" height="17" as="geometry">
            <mxRectangle width="28" height="17" as="alternateBounds" />
          </mxGeometry>
        </mxCell>
        <mxCell id="R1HHoGMpDkZWzOGXWr1R-5" value="" style="shape=partialRectangle;html=1;whiteSpace=wrap;connectable=0;strokeColor=inherit;overflow=hidden;fillColor=none;top=0;left=0;bottom=0;right=0;pointerEvents=1;fontSize=16;" parent="R1HHoGMpDkZWzOGXWr1R-3" vertex="1">
          <mxGeometry x="28" width="28" height="17" as="geometry">
            <mxRectangle width="28" height="17" as="alternateBounds" />
          </mxGeometry>
        </mxCell>
        <mxCell id="R1HHoGMpDkZWzOGXWr1R-6" value="" style="shape=partialRectangle;html=1;whiteSpace=wrap;connectable=0;strokeColor=inherit;overflow=hidden;fillColor=none;top=0;left=0;bottom=0;right=0;pointerEvents=1;fontSize=16;" parent="R1HHoGMpDkZWzOGXWr1R-3" vertex="1">
          <mxGeometry x="56" width="28" height="17" as="geometry">
            <mxRectangle width="28" height="17" as="alternateBounds" />
          </mxGeometry>
        </mxCell>
        <mxCell id="R1HHoGMpDkZWzOGXWr1R-7" value="" style="shape=tableRow;horizontal=0;startSize=0;swimlaneHead=0;swimlaneBody=0;strokeColor=inherit;top=0;left=0;bottom=0;right=0;collapsible=0;dropTarget=0;fillColor=none;points=[[0,0.5],[1,0.5]];portConstraint=eastwest;fontSize=16;" parent="R1HHoGMpDkZWzOGXWr1R-2" vertex="1">
          <mxGeometry y="17" width="84" height="20" as="geometry" />
        </mxCell>
        <mxCell id="R1HHoGMpDkZWzOGXWr1R-8" value="" style="shape=partialRectangle;html=1;whiteSpace=wrap;connectable=0;strokeColor=inherit;overflow=hidden;fillColor=none;top=0;left=0;bottom=0;right=0;pointerEvents=1;fontSize=16;" parent="R1HHoGMpDkZWzOGXWr1R-7" vertex="1">
          <mxGeometry width="28" height="20" as="geometry">
            <mxRectangle width="28" height="20" as="alternateBounds" />
          </mxGeometry>
        </mxCell>
        <mxCell id="R1HHoGMpDkZWzOGXWr1R-9" value="" style="shape=partialRectangle;html=1;whiteSpace=wrap;connectable=0;strokeColor=inherit;overflow=hidden;fillColor=none;top=0;left=0;bottom=0;right=0;pointerEvents=1;fontSize=16;" parent="R1HHoGMpDkZWzOGXWr1R-7" vertex="1">
          <mxGeometry x="28" width="28" height="20" as="geometry">
            <mxRectangle width="28" height="20" as="alternateBounds" />
          </mxGeometry>
        </mxCell>
        <mxCell id="R1HHoGMpDkZWzOGXWr1R-10" value="" style="shape=partialRectangle;html=1;whiteSpace=wrap;connectable=0;strokeColor=inherit;overflow=hidden;fillColor=none;top=0;left=0;bottom=0;right=0;pointerEvents=1;fontSize=16;" parent="R1HHoGMpDkZWzOGXWr1R-7" vertex="1">
          <mxGeometry x="56" width="28" height="20" as="geometry">
            <mxRectangle width="28" height="20" as="alternateBounds" />
          </mxGeometry>
        </mxCell>
        <mxCell id="R1HHoGMpDkZWzOGXWr1R-11" value="" style="shape=tableRow;horizontal=0;startSize=0;swimlaneHead=0;swimlaneBody=0;strokeColor=inherit;top=0;left=0;bottom=0;right=0;collapsible=0;dropTarget=0;fillColor=none;points=[[0,0.5],[1,0.5]];portConstraint=eastwest;fontSize=16;" parent="R1HHoGMpDkZWzOGXWr1R-2" vertex="1">
          <mxGeometry y="37" width="84" height="17" as="geometry" />
        </mxCell>
        <mxCell id="R1HHoGMpDkZWzOGXWr1R-12" value="" style="shape=partialRectangle;html=1;whiteSpace=wrap;connectable=0;strokeColor=inherit;overflow=hidden;fillColor=none;top=0;left=0;bottom=0;right=0;pointerEvents=1;fontSize=16;" parent="R1HHoGMpDkZWzOGXWr1R-11" vertex="1">
          <mxGeometry width="28" height="17" as="geometry">
            <mxRectangle width="28" height="17" as="alternateBounds" />
          </mxGeometry>
        </mxCell>
        <mxCell id="R1HHoGMpDkZWzOGXWr1R-13" value="" style="shape=partialRectangle;html=1;whiteSpace=wrap;connectable=0;strokeColor=inherit;overflow=hidden;fillColor=none;top=0;left=0;bottom=0;right=0;pointerEvents=1;fontSize=16;" parent="R1HHoGMpDkZWzOGXWr1R-11" vertex="1">
          <mxGeometry x="28" width="28" height="17" as="geometry">
            <mxRectangle width="28" height="17" as="alternateBounds" />
          </mxGeometry>
        </mxCell>
        <mxCell id="R1HHoGMpDkZWzOGXWr1R-14" value="" style="shape=partialRectangle;html=1;whiteSpace=wrap;connectable=0;strokeColor=inherit;overflow=hidden;fillColor=none;top=0;left=0;bottom=0;right=0;pointerEvents=1;fontSize=16;" parent="R1HHoGMpDkZWzOGXWr1R-11" vertex="1">
          <mxGeometry x="56" width="28" height="17" as="geometry">
            <mxRectangle width="28" height="17" as="alternateBounds" />
          </mxGeometry>
        </mxCell>
        <mxCell id="R1HHoGMpDkZWzOGXWr1R-15" value="" style="endArrow=none;html=1;rounded=0;entryX=0.985;entryY=0.985;entryDx=0;entryDy=0;entryPerimeter=0;" parent="1" source="2vWqZJId4R-WWW28JVpw-7" target="2vWqZJId4R-WWW28JVpw-1" edge="1">
          <mxGeometry width="50" height="50" relative="1" as="geometry">
            <mxPoint x="525" y="564" as="sourcePoint" />
            <mxPoint x="432" y="549" as="targetPoint" />
          </mxGeometry>
        </mxCell>
        <mxCell id="2vWqZJId4R-WWW28JVpw-32" value=".254" style="text;html=1;align=center;verticalAlign=middle;whiteSpace=wrap;rounded=0;" parent="1" vertex="1">
          <mxGeometry x="420" y="670" width="60" height="30" as="geometry" />
        </mxCell>
        <mxCell id="R1HHoGMpDkZWzOGXWr1R-17" value="" style="endArrow=none;html=1;rounded=0;entryX=0.5;entryY=1;entryDx=0;entryDy=0;" parent="1" source="2vWqZJId4R-WWW28JVpw-8" target="R1HHoGMpDkZWzOGXWr1R-2" edge="1">
          <mxGeometry width="50" height="50" relative="1" as="geometry">
            <mxPoint x="390" y="510" as="sourcePoint" />
            <mxPoint x="440" y="460" as="targetPoint" />
          </mxGeometry>
        </mxCell>
        <mxCell id="r-LHvPa2l2wv0apda_5V-2" value=".246" style="text;html=1;align=center;verticalAlign=middle;whiteSpace=wrap;rounded=0;" vertex="1" parent="1">
          <mxGeometry x="410" y="540" width="60" height="30" as="geometry" />
        </mxCell>
        <mxCell id="r-LHvPa2l2wv0apda_5V-3" value="&lt;div&gt;Vlan 239 : interco&lt;/div&gt;&lt;div&gt;172.28.95.248 /29&lt;/div&gt;" style="text;html=1;align=center;verticalAlign=middle;whiteSpace=wrap;rounded=0;" vertex="1" parent="1">
          <mxGeometry x="470" y="300" width="170" height="30" as="geometry" />
        </mxCell>
        <mxCell id="r-LHvPa2l2wv0apda_5V-4" value=".253" style="text;html=1;align=center;verticalAlign=middle;whiteSpace=wrap;rounded=0;" vertex="1" parent="1">
          <mxGeometry x="400" y="330" width="60" height="30" as="geometry" />
        </mxCell>
        <mxCell id="r-LHvPa2l2wv0apda_5V-6" value="" style="shape=table;startSize=0;container=1;collapsible=0;childLayout=tableLayout;fontSize=16;" vertex="1" parent="1">
          <mxGeometry x="368" y="350" width="82" height="50" as="geometry" />
        </mxCell>
        <mxCell id="r-LHvPa2l2wv0apda_5V-7" value="" style="shape=tableRow;horizontal=0;startSize=0;swimlaneHead=0;swimlaneBody=0;strokeColor=inherit;top=0;left=0;bottom=0;right=0;collapsible=0;dropTarget=0;fillColor=none;points=[[0,0.5],[1,0.5]];portConstraint=eastwest;fontSize=16;" vertex="1" parent="r-LHvPa2l2wv0apda_5V-6">
          <mxGeometry width="82" height="17" as="geometry" />
        </mxCell>
        <mxCell id="r-LHvPa2l2wv0apda_5V-8" value="" style="shape=partialRectangle;html=1;whiteSpace=wrap;connectable=0;strokeColor=inherit;overflow=hidden;fillColor=none;top=0;left=0;bottom=0;right=0;pointerEvents=1;fontSize=16;" vertex="1" parent="r-LHvPa2l2wv0apda_5V-7">
          <mxGeometry width="27" height="17" as="geometry">
            <mxRectangle width="27" height="17" as="alternateBounds" />
          </mxGeometry>
        </mxCell>
        <mxCell id="r-LHvPa2l2wv0apda_5V-9" value="" style="shape=partialRectangle;html=1;whiteSpace=wrap;connectable=0;strokeColor=inherit;overflow=hidden;fillColor=none;top=0;left=0;bottom=0;right=0;pointerEvents=1;fontSize=16;" vertex="1" parent="r-LHvPa2l2wv0apda_5V-7">
          <mxGeometry x="27" width="28" height="17" as="geometry">
            <mxRectangle width="28" height="17" as="alternateBounds" />
          </mxGeometry>
        </mxCell>
        <mxCell id="r-LHvPa2l2wv0apda_5V-10" value="" style="shape=partialRectangle;html=1;whiteSpace=wrap;connectable=0;strokeColor=inherit;overflow=hidden;fillColor=none;top=0;left=0;bottom=0;right=0;pointerEvents=1;fontSize=16;" vertex="1" parent="r-LHvPa2l2wv0apda_5V-7">
          <mxGeometry x="55" width="27" height="17" as="geometry">
            <mxRectangle width="27" height="17" as="alternateBounds" />
          </mxGeometry>
        </mxCell>
        <mxCell id="r-LHvPa2l2wv0apda_5V-11" value="" style="shape=tableRow;horizontal=0;startSize=0;swimlaneHead=0;swimlaneBody=0;strokeColor=inherit;top=0;left=0;bottom=0;right=0;collapsible=0;dropTarget=0;fillColor=none;points=[[0,0.5],[1,0.5]];portConstraint=eastwest;fontSize=16;" vertex="1" parent="r-LHvPa2l2wv0apda_5V-6">
          <mxGeometry y="17" width="82" height="16" as="geometry" />
        </mxCell>
        <mxCell id="r-LHvPa2l2wv0apda_5V-12" value="" style="shape=partialRectangle;html=1;whiteSpace=wrap;connectable=0;strokeColor=inherit;overflow=hidden;fillColor=none;top=0;left=0;bottom=0;right=0;pointerEvents=1;fontSize=16;" vertex="1" parent="r-LHvPa2l2wv0apda_5V-11">
          <mxGeometry width="27" height="16" as="geometry">
            <mxRectangle width="27" height="16" as="alternateBounds" />
          </mxGeometry>
        </mxCell>
        <mxCell id="r-LHvPa2l2wv0apda_5V-13" value="" style="shape=partialRectangle;html=1;whiteSpace=wrap;connectable=0;strokeColor=inherit;overflow=hidden;fillColor=none;top=0;left=0;bottom=0;right=0;pointerEvents=1;fontSize=16;" vertex="1" parent="r-LHvPa2l2wv0apda_5V-11">
          <mxGeometry x="27" width="28" height="16" as="geometry">
            <mxRectangle width="28" height="16" as="alternateBounds" />
          </mxGeometry>
        </mxCell>
        <mxCell id="r-LHvPa2l2wv0apda_5V-14" value="" style="shape=partialRectangle;html=1;whiteSpace=wrap;connectable=0;strokeColor=inherit;overflow=hidden;fillColor=none;top=0;left=0;bottom=0;right=0;pointerEvents=1;fontSize=16;" vertex="1" parent="r-LHvPa2l2wv0apda_5V-11">
          <mxGeometry x="55" width="27" height="16" as="geometry">
            <mxRectangle width="27" height="16" as="alternateBounds" />
          </mxGeometry>
        </mxCell>
        <mxCell id="r-LHvPa2l2wv0apda_5V-15" value="" style="shape=tableRow;horizontal=0;startSize=0;swimlaneHead=0;swimlaneBody=0;strokeColor=inherit;top=0;left=0;bottom=0;right=0;collapsible=0;dropTarget=0;fillColor=none;points=[[0,0.5],[1,0.5]];portConstraint=eastwest;fontSize=16;" vertex="1" parent="r-LHvPa2l2wv0apda_5V-6">
          <mxGeometry y="33" width="82" height="17" as="geometry" />
        </mxCell>
        <mxCell id="r-LHvPa2l2wv0apda_5V-16" value="" style="shape=partialRectangle;html=1;whiteSpace=wrap;connectable=0;strokeColor=inherit;overflow=hidden;fillColor=none;top=0;left=0;bottom=0;right=0;pointerEvents=1;fontSize=16;" vertex="1" parent="r-LHvPa2l2wv0apda_5V-15">
          <mxGeometry width="27" height="17" as="geometry">
            <mxRectangle width="27" height="17" as="alternateBounds" />
          </mxGeometry>
        </mxCell>
        <mxCell id="r-LHvPa2l2wv0apda_5V-17" value="" style="shape=partialRectangle;html=1;whiteSpace=wrap;connectable=0;strokeColor=inherit;overflow=hidden;fillColor=none;top=0;left=0;bottom=0;right=0;pointerEvents=1;fontSize=16;" vertex="1" parent="r-LHvPa2l2wv0apda_5V-15">
          <mxGeometry x="27" width="28" height="17" as="geometry">
            <mxRectangle width="28" height="17" as="alternateBounds" />
          </mxGeometry>
        </mxCell>
        <mxCell id="r-LHvPa2l2wv0apda_5V-18" value="" style="shape=partialRectangle;html=1;whiteSpace=wrap;connectable=0;strokeColor=inherit;overflow=hidden;fillColor=none;top=0;left=0;bottom=0;right=0;pointerEvents=1;fontSize=16;" vertex="1" parent="r-LHvPa2l2wv0apda_5V-15">
          <mxGeometry x="55" width="27" height="17" as="geometry">
            <mxRectangle width="27" height="17" as="alternateBounds" />
          </mxGeometry>
        </mxCell>
        <mxCell id="r-LHvPa2l2wv0apda_5V-19" value="" style="endArrow=none;html=1;rounded=0;entryX=0.5;entryY=1;entryDx=0;entryDy=0;exitX=0.488;exitY=-0.176;exitDx=0;exitDy=0;exitPerimeter=0;" edge="1" parent="1" source="R1HHoGMpDkZWzOGXWr1R-3" target="r-LHvPa2l2wv0apda_5V-6">
          <mxGeometry width="50" height="50" relative="1" as="geometry">
            <mxPoint x="270" y="460" as="sourcePoint" />
            <mxPoint x="320" y="410" as="targetPoint" />
          </mxGeometry>
        </mxCell>
        <mxCell id="r-LHvPa2l2wv0apda_5V-20" value="" style="endArrow=none;html=1;rounded=0;entryX=0.5;entryY=1;entryDx=0;entryDy=0;exitX=0.512;exitY=0.059;exitDx=0;exitDy=0;exitPerimeter=0;" edge="1" parent="1" source="r-LHvPa2l2wv0apda_5V-7" target="2vWqZJId4R-WWW28JVpw-19">
          <mxGeometry width="50" height="50" relative="1" as="geometry">
            <mxPoint x="260" y="400" as="sourcePoint" />
            <mxPoint x="300" y="320" as="targetPoint" />
          </mxGeometry>
        </mxCell>
        <mxCell id="r-LHvPa2l2wv0apda_5V-21" value="&lt;div&gt;Vlan 237 : DMZ&lt;/div&gt;&lt;div&gt;192.168.37.0/24&lt;/div&gt;" style="text;html=1;align=center;verticalAlign=middle;whiteSpace=wrap;rounded=0;" vertex="1" parent="1">
          <mxGeometry x="510" y="430" width="130" height="30" as="geometry" />
        </mxCell>
        <mxCell id="r-LHvPa2l2wv0apda_5V-22" value=".254" style="text;html=1;align=center;verticalAlign=middle;whiteSpace=wrap;rounded=0;" vertex="1" parent="1">
          <mxGeometry x="394.5" y="390" width="60" height="30" as="geometry" />
        </mxCell>
        <mxCell id="r-LHvPa2l2wv0apda_5V-23" value=".1" style="text;html=1;align=center;verticalAlign=middle;whiteSpace=wrap;rounded=0;" vertex="1" parent="1">
          <mxGeometry x="390" y="460" width="60" height="30" as="geometry" />
        </mxCell>
        <mxCell id="r-LHvPa2l2wv0apda_5V-24" value="" style="endArrow=none;html=1;rounded=0;" edge="1" parent="1" target="2vWqZJId4R-WWW28JVpw-6">
          <mxGeometry width="50" height="50" relative="1" as="geometry">
            <mxPoint x="110" y="740" as="sourcePoint" />
            <mxPoint x="130" y="730" as="targetPoint" />
          </mxGeometry>
        </mxCell>
        <mxCell id="r-LHvPa2l2wv0apda_5V-25" value="" style="endArrow=none;html=1;rounded=0;exitX=0.5;exitY=0;exitDx=0;exitDy=0;exitPerimeter=0;" edge="1" parent="1" source="r-LHvPa2l2wv0apda_5V-26">
          <mxGeometry width="50" height="50" relative="1" as="geometry">
            <mxPoint x="110" y="780" as="sourcePoint" />
            <mxPoint x="110" y="740" as="targetPoint" />
          </mxGeometry>
        </mxCell>
        <mxCell id="r-LHvPa2l2wv0apda_5V-26" value="" style="sketch=0;points=[[0.015,0.015,0],[0.985,0.015,0],[0.985,0.985,0],[0.015,0.985,0],[0.25,0,0],[0.5,0,0],[0.75,0,0],[1,0.25,0],[1,0.5,0],[1,0.75,0],[0.75,1,0],[0.5,1,0],[0.25,1,0],[0,0.75,0],[0,0.5,0],[0,0.25,0]];verticalLabelPosition=bottom;html=1;verticalAlign=top;aspect=fixed;align=center;pointerEvents=1;shape=mxgraph.cisco19.rect;prIcon=l2_switch;fillColor=#FAFAFA;strokeColor=#005073;" vertex="1" parent="1">
          <mxGeometry x="80" y="790" width="50" height="50" as="geometry" />
        </mxCell>
        <mxCell id="r-LHvPa2l2wv0apda_5V-27" value="" style="image;points=[];aspect=fixed;html=1;align=center;shadow=0;dashed=0;image=img/lib/allied_telesis/computer_and_terminals/Server_Desktop.svg;" vertex="1" parent="1">
          <mxGeometry x="83.7" y="900" width="42.599999999999994" height="54" as="geometry" />
        </mxCell>
        <mxCell id="r-LHvPa2l2wv0apda_5V-28" value="" style="endArrow=none;html=1;rounded=0;entryX=0.5;entryY=1;entryDx=0;entryDy=0;entryPerimeter=0;exitX=0.5;exitY=0;exitDx=0;exitDy=0;exitPerimeter=0;" edge="1" parent="1" source="r-LHvPa2l2wv0apda_5V-27" target="r-LHvPa2l2wv0apda_5V-26">
          <mxGeometry width="50" height="50" relative="1" as="geometry">
            <mxPoint x="40" y="760" as="sourcePoint" />
            <mxPoint x="90" y="710" as="targetPoint" />
          </mxGeometry>
        </mxCell>
        <mxCell id="r-LHvPa2l2wv0apda_5V-29" value="proxmox" style="text;html=1;align=center;verticalAlign=middle;whiteSpace=wrap;rounded=0;" vertex="1" parent="1">
          <mxGeometry x="75" y="954" width="60" height="30" as="geometry" />
        </mxCell>
        <mxCell id="r-LHvPa2l2wv0apda_5V-30" value=".253" style="text;html=1;align=center;verticalAlign=middle;whiteSpace=wrap;rounded=0;" vertex="1" parent="1">
          <mxGeometry x="90" y="870" width="60" height="30" as="geometry" />
        </mxCell>
      </root>
    </mxGraphModel>
  </diagram>
</mxfile>
